# xmcd
#
# Track frame offsets: 
#        150
#        12225
#        25658
#        36549
#        49797
#        61884
#        76482
#        90085
#        105772
#        118569
#        131888
#        145929
#        157886
#        169192
#        182274
#        193082
#        206424
#        218441
#        229960
#        243824
#
# Disc length: 3389 seconds
#
# Revision: 1
# Processed by: cddbd v1.5.2PL0 Copyright (c) Steve Scherf et al.
# Submitted via: ExactAudioCopy v0.95b4
#
DISCID=f90d3b14
DTITLE=Teddy Wilson - Don't Blame Me [CD4]
DYEAR=1986
DGENRE=Jazz
TTITLE0=I Never Knew
TTITLE1=Oh! Lady Be Good
TTITLE2=I Know That You Know
TTITLE3=Them There Eyes
TTITLE4=China Boy
TTITLE5=Body And Soul
TTITLE6=I Can't Get Started
TTITLE7=Out Of Nowhere
TTITLE8=Bugle Call Rag
TTITLE9=Running Wild
TTITLE10=I Can't Get Started
TTITLE11=Stompin' At The Savoy
TTITLE12=All Of Me
TTITLE13=Hallelujah
TTITLE14=Long Ago And Far Away
TTITLE15=Don't Worry 'Bout Me
TTITLE16=I Want To Be Happy
TTITLE17=Just One Of Those Things
TTITLE18=Time After Time
TTITLE19=Fine And Dandy
EXTD=YEAR: 1986
EXTT0=
EXTT1=
EXTT2=
EXTT3=
EXTT4=
EXTT5=
EXTT6=
EXTT7=
EXTT8=
EXTT9=
EXTT10=
EXTT11=
EXTT12=
EXTT13=
EXTT14=
EXTT15=
EXTT16=
EXTT17=
EXTT18=
EXTT19=
PLAYORDER=
